# xmcd
#
# Track frame offsets: 
#        150
#        6597
#        23138
#        44751
#        65132
#        89412
#        112148
#        116957
#        138866
#        157509
#        177149
#        196893
#        215338
#
# Disc length: 3117 seconds
#
# Revision: 0
# Processed by: cddbd v1.5.2PL0 Copyright (c) Steve Scherf et al.
# Submitted via: ExactAudioCopy v0.99pb5
#
DISCID=b90c2b0d
DTITLE=Robbie Williams - Reality Killed The Video Star
DYEAR=2009
DGENRE=Pop
TTITLE0=Morning Sun
TTITLE1=Bodies
TTITLE2=You Know Me
TTITLE3=Blasphemy
TTITLE4=Do You Mind?
TTITLE5=Last Days Of Disco
TTITLE6=Somewhere
TTITLE7=Deceptacon
TTITLE8=Starstruck
TTITLE9=Difficult For Weirdos
TTITLE10=Superblind
TTITLE11=Won't Do That
TTITLE12=Morning Sun Reprise
EXTD=
EXTT0=
EXTT1=
EXTT2=
EXTT3=
EXTT4=
EXTT5=
EXTT6=
EXTT7=
EXTT8=
EXTT9=
EXTT10=
EXTT11=
EXTT12=
PLAYORDER=
